<?xml version="1.0" encoding="UTF-8" standalone="no"?><!DOCTYPE svg PUBLIC "-//W3C//DTD SVG 1.1//EN" "http://www.w3.org/Graphics/SVG/1.1/DTD/svg11.dtd"><svg width="100%" height="100%" viewBox="0 0 3386 937" version="1.1" xmlns="http://www.w3.org/2000/svg" xmlns:xlink="http://www.w3.org/1999/xlink" xml:space="preserve" xmlns:serif="http://www.serif.com/" style="fill-rule:evenodd;clip-rule:evenodd;stroke-linejoin:round;stroke-miterlimit:2;"><rect id="Page-4" serif:id="Page 4" x="0" y="0" width="3385.12" height="936.92" style="fill:none;"/><g id="Layer-1" serif:id="Layer 1"><path d="M430.438,56.565l43.241,88.163l-162.621,219.975l177.438,-0l55.942,-75.725l22.179,-29.959l-70.759,-144.25l-43.258,-88.17l0.008,-0.013l-0.012,0l-0.021,-0.037l-0.079,0.037l-177.379,0l-250.038,338.079l177.492,0l227.867,-308.1Z" style="fill:#fff;fill-rule:nonzero;"/><path d="M785.502,580.896l-0.079,-0.042l-106.304,-141.996l-654.038,2.458l106.371,142.084l616.754,-2.238l-44.662,87.454l-0.004,0.013l-0.03,-0l-526.604,1.654l107.671,142.017l79.613,105.104l-0,-105.613l11.175,-0.07l6.72,-0.046l285.667,-0.163l73.067,-143.096l44.658,-87.47l0.017,-0l-0.009,-0.013l0.017,-0.037Z" style="fill:#fff;fill-rule:nonzero;"/><path d="M1007.9,540.281l77.1,-0c-0,40.879 22.771,65.716 80.725,65.716c41.917,0 66.75,-15.004 66.75,-48.121c-0,-86.937 -218.883,-24.841 -218.883,-169.212c-0,-58.475 33.116,-107.113 142.3,-107.113c99.354,0 141.787,39.842 140.75,124.709l-69.859,-0c0,-40.363 -22.25,-60.546 -71.925,-60.546c-46.058,-0 -62.096,18.629 -62.096,42.95c0,77.621 210.605,19.146 210.605,171.279c-0,72.963 -43.984,110.738 -147.475,110.738c-101.938,-0 -149.03,-36.742 -147.992,-130.4" style="fill:#fff;fill-rule:nonzero;"/><path d="M1567.79,521.651c-0,-50.712 -22.25,-86.933 -77.621,-86.933c-55.884,-0 -78.134,36.737 -78.134,87.45c0,52.266 24.838,83.312 78.134,83.312c53.3,0 77.621,-31.046 77.621,-83.829m-228.2,0c-0,-102.975 53.3,-152.133 150.579,-152.133c97.287,-0 150.062,48.641 150.062,152.133c0,103.492 -51.741,149.029 -150.575,149.029c-98.837,0 -150.066,-46.571 -150.066,-149.029" style="fill:#fff;fill-rule:nonzero;"/><rect x="1686.28" y="273.271" width="71.925" height="389.129" style="fill:#fff;"/><path d="M2032.97,521.651c-0,-50.712 -22.246,-86.933 -77.617,-86.933c-55.883,-0 -78.133,36.737 -78.133,87.45c-0,52.266 24.837,83.312 78.133,83.312c53.3,0 77.617,-31.046 77.617,-83.829m-228.196,0c-0,-102.975 53.296,-152.133 150.579,-152.133c97.279,-0 150.063,48.641 150.063,152.133c-0,103.492 -51.746,149.029 -150.58,149.029c-98.837,0 -150.062,-46.571 -150.062,-149.029" style="fill:#fff;fill-rule:nonzero;"/><path d="M2301.01,479.736c46.571,0 71.929,-17.595 71.929,-61.062c0,-46.571 -28.975,-66.233 -71.929,-66.233l-77.1,-0l0,127.295l77.1,0Zm-149.546,-189.908l169.213,0c77.617,0 121.604,48.125 121.604,128.846c0,77.104 -41.917,123.675 -121.087,123.675l-97.284,-0l0,120.05l-72.446,-0l0,-372.571Z" style="fill:#fff;fill-rule:nonzero;"/><path d="M2567.51,619.968c41.391,0 70.375,-42.95 70.375,-60.025l-0,-12.417l-67.788,0c-36.741,0 -47.087,11.896 -47.087,35.188c-0,21.212 9.829,37.254 44.5,37.254m71.412,11.383l-2.071,-0.516c-19.145,24.837 -47.087,39.846 -90.558,39.846c-58.471,-0 -92.625,-31.567 -92.625,-82.796c0,-56.921 40.879,-84.346 93.658,-84.863l91.08,-0.516l-0,-20.7c-0,-37.775 -21.221,-51.23 -54.855,-51.23c-34.67,0 -54.337,15.009 -58.47,41.917l-66.75,0c4.133,-67.787 45.016,-102.975 131.433,-102.975c70.887,0 119.529,22.25 119.529,101.421l0,145.408c0,21.217 2.067,35.704 5.692,46.054l-72.963,0l-3.1,-31.05Z" style="fill:#fff;fill-rule:nonzero;"/><path d="M2757.93,520.616c-0,-102.971 51.746,-151.1 144.887,-151.1c81.759,-0 124.713,36.741 133.504,115.395l-74.516,0c-3.1,-32.083 -23.284,-50.191 -61.059,-50.191c-46.054,-0 -70.375,28.458 -70.375,83.825c0,54.854 23.288,86.933 72.963,86.933c31.567,0 52.267,-13.454 57.442,-42.95l76.583,0c-10.867,75.55 -54.854,108.15 -134.025,108.15c-95.729,0 -145.404,-48.637 -145.404,-150.062" style="fill:#fff;fill-rule:nonzero;"/><path d="M3079.78,273.27l71.929,0l0,219.4l115.913,-114.875l86.416,0l-105.566,108.15l107.637,176.454l-80.208,0l-77.621,-125.741l-46.571,47.604l0,78.137l-71.929,0l0,-389.129Z" style="fill:#fff;fill-rule:nonzero;"/></g></svg>