<?xml version="1.0" encoding="UTF-8" standalone="no"?><!DOCTYPE svg PUBLIC "-//W3C//DTD SVG 1.1//EN" "http://www.w3.org/Graphics/SVG/1.1/DTD/svg11.dtd"><svg width="100%" height="100%" viewBox="0 0 3367 930" version="1.1" xmlns="http://www.w3.org/2000/svg" xmlns:xlink="http://www.w3.org/1999/xlink" xml:space="preserve" xmlns:serif="http://www.serif.com/" style="fill-rule:evenodd;clip-rule:evenodd;stroke-linejoin:round;stroke-miterlimit:2;"><rect id="Page-5" serif:id="Page 5" x="0" y="0" width="3366.34" height="929.123" style="fill:none;"/><g id="Layer-1" serif:id="Layer 1"><path d="M423.642,50.238l43.242,88.163l-162.621,219.975l177.438,-0l55.941,-75.725l22.179,-29.959l-70.758,-144.25l-43.258,-88.17l0.008,-0.013l-0.012,0l-0.021,-0.037l-0.079,0.037l-177.38,0l-250.037,338.079l177.492,0l227.866,-308.1Z" style="fill:#332f33;fill-rule:nonzero;"/><path d="M778.707,574.569l-0.079,-0.042l-106.305,-141.996l-654.037,2.459l106.371,142.083l616.754,-2.238l-44.663,87.455l-0.004,0.012l-0.029,0l-526.604,1.654l107.671,142.017l79.612,105.104l0,-105.612l11.175,-0.071l6.721,-0.046l285.667,-0.163l73.066,-143.095l44.659,-87.471l0.016,-0l-0.008,-0.013l0.017,-0.037Z" style="fill:#332f33;fill-rule:nonzero;"/><path d="M1001.11,533.954l77.1,-0c-0,40.879 22.77,65.716 80.725,65.716c41.916,0 66.75,-15.004 66.75,-48.12c-0,-86.938 -218.884,-24.842 -218.884,-169.213c0,-58.475 33.117,-107.112 142.3,-107.112c99.354,-0 141.788,39.841 140.75,124.708l-69.858,-0c-0,-40.363 -22.25,-60.546 -71.925,-60.546c-46.058,0 -62.096,18.629 -62.096,42.95c0,77.621 210.604,19.146 210.604,171.279c0,72.963 -43.983,110.738 -147.475,110.738c-101.937,-0 -149.029,-36.742 -147.991,-130.4" style="fill:#332f33;fill-rule:nonzero;"/><path d="M1560.99,515.324c0,-50.712 -22.25,-86.933 -77.621,-86.933c-55.883,-0 -78.133,36.737 -78.133,87.45c0,52.266 24.838,83.312 78.133,83.312c53.3,0 77.621,-31.046 77.621,-83.829m-228.2,0c0,-102.975 53.3,-152.133 150.579,-152.133c97.288,-0 150.063,48.641 150.063,152.133c-0,103.492 -51.742,149.029 -150.575,149.029c-98.838,0 -150.067,-46.571 -150.067,-149.029" style="fill:#332f33;fill-rule:nonzero;"/><rect x="1679.49" y="266.945" width="71.925" height="389.129" style="fill:#332f33;"/><path d="M2026.17,515.324c0,-50.712 -22.245,-86.933 -77.616,-86.933c-55.884,-0 -78.134,36.737 -78.134,87.45c0,52.266 24.838,83.312 78.134,83.312c53.3,0 77.616,-31.046 77.616,-83.829m-228.195,0c-0,-102.975 53.295,-152.133 150.579,-152.133c97.279,-0 150.062,48.641 150.062,152.133c0,103.492 -51.746,149.029 -150.579,149.029c-98.837,0 -150.062,-46.571 -150.062,-149.029" style="fill:#332f33;fill-rule:nonzero;"/><path d="M2294.22,473.41c46.571,-0 71.929,-17.596 71.929,-61.063c0,-46.571 -28.975,-66.233 -71.929,-66.233l-77.1,-0l-0,127.296l77.1,-0Zm-149.546,-189.909l169.213,0c77.616,0 121.604,48.125 121.604,128.846c-0,77.104 -41.917,123.675 -121.088,123.675l-97.283,0l-0,120.05l-72.446,0l0,-372.571Z" style="fill:#332f33;fill-rule:nonzero;"/><path d="M2560.71,613.641c41.392,0 70.375,-42.95 70.375,-60.025l0,-12.416l-67.787,-0c-36.742,-0 -47.088,11.895 -47.088,35.187c0,21.213 9.83,37.254 44.5,37.254m71.413,11.384l-2.071,-0.517c-19.146,24.837 -47.087,39.846 -90.558,39.846c-58.471,-0 -92.625,-31.567 -92.625,-82.796c-0,-56.921 40.879,-84.346 93.658,-84.863l91.079,-0.516l0,-20.7c0,-37.775 -21.221,-51.229 -54.854,-51.229c-34.671,-0 -54.337,15.008 -58.471,41.916l-66.75,0c4.134,-67.787 45.017,-102.975 131.434,-102.975c70.887,0 119.529,22.25 119.529,101.421l-0,145.408c-0,21.217 2.066,35.705 5.691,46.055l-72.962,-0l-3.1,-31.05Z" style="fill:#332f33;fill-rule:nonzero;"/><path d="M2751.13,514.289c0,-102.971 51.746,-151.1 144.888,-151.1c81.758,-0 124.712,36.741 133.504,115.396l-74.517,-0c-3.1,-32.084 -23.283,-50.192 -61.058,-50.192c-46.054,-0 -70.375,28.458 -70.375,83.825c0,54.854 23.288,86.933 72.963,86.933c31.566,0 52.266,-13.454 57.441,-42.95l76.584,0c-10.867,75.55 -54.855,108.15 -134.025,108.15c-95.73,0 -145.405,-48.637 -145.405,-150.062" style="fill:#332f33;fill-rule:nonzero;"/><path d="M3072.99,266.943l71.929,0l-0,219.4l115.912,-114.875l86.417,0l-105.567,108.15l107.638,176.454l-80.208,0l-77.621,-125.741l-46.571,47.604l-0,78.137l-71.929,0l-0,-389.129Z" style="fill:#332f33;fill-rule:nonzero;"/></g></svg>